<svg xmlns="http://www.w3.org/2000/svg" viewBox="0 0 122.69 9.64"><defs><style>.cls-1{fill:#af0;}.cls-2{fill:#fff;}</style></defs><title>Asset 1</title><g id="Layer_2" data-name="Layer 2"><g id="Layer_1-2" data-name="Layer 1"><path class="cls-1" d="M9.79,5.47a5.83,5.83,0,0,1-.93,3.58,4.37,4.37,0,0,1-3.73,1.77A4.57,4.57,0,0,1,.31,6.05,4.62,4.62,0,0,1,5.22,1.18,4.18,4.18,0,0,1,9.29,3.71l-2.23.94A2,2,0,0,0,5.11,3.21c-1.55,0-2.35,1.47-2.35,2.85A2.58,2.58,0,0,0,5.15,8.89,1.71,1.71,0,0,0,7,7.32H5.12V5.47Z" transform="translate(-0.31 -1.18)"/><path class="cls-1" d="M18.39,10.52H15.46L13.25,7.05h0v3.47H10.87v-9h3.52c1.78,0,3.14.85,3.14,2.78a2.44,2.44,0,0,1-2,2.56Zm-5.17-5h.23c.77,0,1.63-.15,1.63-1.13s-.86-1.13-1.63-1.13h-.23Z" transform="translate(-0.31 -1.18)"/><path class="cls-1" d="M21.38,3.47V5H24V7H21.38V8.53h2.8v2H19v-9h5.15v2Z" transform="translate(-0.31 -1.18)"/><path class="cls-1" d="M28,3.47V5h2.65V7H28V8.53h2.8v2H25.63v-9h5.15v2Z" transform="translate(-0.31 -1.18)"/><path class="cls-1" d="M32.23,1.48h2.35L38.89,7h0V1.48h2.35v9H38.91L34.61,5h0v5.54H32.23Z" transform="translate(-0.31 -1.18)"/><path class="cls-1" d="M47.77,3.81a2.46,2.46,0,0,0-1.56-.6c-.43,0-1,.25-1,.75s.64.74,1,.87l.6.18c1.25.37,2.23,1,2.23,2.47a3.06,3.06,0,0,1-.94,2.43,4,4,0,0,1-2.57.85,5.53,5.53,0,0,1-3.17-1l1-1.89a3.27,3.27,0,0,0,2.09.93c.55,0,1.14-.27,1.14-.91s-.92-.89-1.43-1c-1.47-.42-2.44-.8-2.44-2.55a2.93,2.93,0,0,1,3.11-3A6.21,6.21,0,0,1,48.7,2Z" transform="translate(-0.31 -1.18)"/><path class="cls-1" d="M56.66,4.52a2.55,2.55,0,0,0-2.06-1A2.38,2.38,0,0,0,52.19,6a2.35,2.35,0,0,0,2.44,2.46,2.73,2.73,0,0,0,2-1v2.81a6.64,6.64,0,0,1-2.08.42,5.06,5.06,0,0,1-3.39-1.33A4.4,4.4,0,0,1,49.74,6,4.76,4.76,0,0,1,51.07,2.7a4.91,4.91,0,0,1,3.44-1.46,5.5,5.5,0,0,1,2.15.46Z" transform="translate(-0.31 -1.18)"/><path class="cls-1" d="M60.42,9l-.63,1.57H57.3l3.48-9h2.56l3.41,9H64.24L63.66,9Zm1.64-4.67h0l-1,2.87h2Z" transform="translate(-0.31 -1.18)"/><path class="cls-1" d="M67.49,1.48h3.59c2,0,3.29.9,3.29,3s-1.15,3.07-3.2,3.07H69.84v3H67.49Zm2.35,4.15h.39c.85,0,1.69,0,1.69-1.1s-.77-1.15-1.69-1.15h-.39Z" transform="translate(-0.31 -1.18)"/><path class="cls-1" d="M77.77,3.47V5h2.65V7H77.77V8.53h2.79v2H75.42v-9h5.14v2Z" transform="translate(-0.31 -1.18)"/><path class="cls-2" d="M91,10.52v-.33c1-.1,1-.17,1-1.45V3.84c-1,2.2-2.56,5.63-3,6.68h-.31C88.33,9.43,87,6.13,86.06,4c-.2,4.2-.21,5.15-.21,5.38,0,.67.31.76,1.12.85v.33H84.13v-.33c.7-.07,1-.22,1.08-.86s.08-1,.4-5.34c0-.63-.08-.83-1.13-.93V2.73h2.09l2.65,6.08,2.84-6.08h2.1v.33c-1,.12-1.17.23-1.14,1.07l0,4.61c0,1.28.08,1.34,1.14,1.45v.33Z" transform="translate(-0.31 -1.18)"/><path class="cls-2" d="M101.51,8.62c-.07.31-.39,1.54-.51,1.9H95.17v-.33c1.12-.09,1.2-.19,1.2-1.18V4.28c0-1.07-.13-1.13-1-1.22V2.73H99c1.13,0,1.59,0,1.74,0,0,.3.06,1.2.1,1.84l-.35.06a4.09,4.09,0,0,0-.36-.91c-.2-.4-.47-.48-1.19-.48H97.81c-.37,0-.4,0-.4.38V6.24h1.33c.9,0,1-.18,1.11-1h.37V7.72h-.37c-.16-.87-.25-1-1.12-1H97.41V9.12c0,.84.27.91.87.92h1.11c.73,0,.85-.1,1.12-.41a5,5,0,0,0,.64-1.11Z" transform="translate(-0.31 -1.18)"/><path class="cls-2" d="M105.69,2.73a4.76,4.76,0,0,1,3.5,1,3.48,3.48,0,0,1,1,2.57,3.94,3.94,0,0,1-1.5,3.24,5.72,5.72,0,0,1-3.55.94h-2.8v-.33c1-.1,1.08-.18,1.08-1.16V4.24c0-1-.15-1.08-1.08-1.18V2.73Zm-1.21,6.2c0,.9.38,1.15,1.28,1.15,2.16,0,3.27-1.47,3.27-3.57a3.13,3.13,0,0,0-1.39-2.88,3.81,3.81,0,0,0-2.06-.48,1.63,1.63,0,0,0-.94.17c-.11.07-.16.2-.16.67Z" transform="translate(-0.31 -1.18)"/><path class="cls-2" d="M111.38,10.52v-.33c1-.11,1.08-.16,1.08-1.18V4.25c0-1-.09-1.08-1.08-1.19V2.73h3.22v.33c-1,.11-1.1.16-1.1,1.19V9c0,1,.1,1.07,1.1,1.18v.33Z" transform="translate(-0.31 -1.18)"/><path class="cls-2" d="M120,10.52v-.33c.78-.1.88-.22.71-.67s-.39-1.07-.65-1.83h-2.59c-.19.54-.37,1-.54,1.5-.26.78-.09.88.89,1v.33h-2.77v-.33c.76-.1,1-.18,1.37-1.26l2.48-6.3.38-.07c.76,2.05,1.59,4.32,2.34,6.39.39,1.05.49,1.14,1.35,1.24v.33Zm-1.2-6.39c-.38,1-.79,2.12-1.15,3.07h2.25Z" transform="translate(-0.31 -1.18)"/></g></g></svg>